<svg xmlns="http://www.w3.org/2000/svg" viewBox="0 0 512 512">
  <defs>
    <linearGradient id="bg" x1="0" y1="0" x2="1" y2="1">
      <stop offset="0" stop-color="#12151d"/>
      <stop offset="1" stop-color="#080a0f"/>
    </linearGradient>
    <radialGradient id="glow" cx="0.28" cy="0.22" r="0.65">
      <stop offset="0" stop-color="#d9a94b" stop-opacity="0.35"/>
      <stop offset="1" stop-color="#d9a94b" stop-opacity="0"/>
    </radialGradient>
    <linearGradient id="top" x1="0" y1="0" x2="0" y2="1">
      <stop offset="0" stop-color="#fbe7bd"/>
      <stop offset="1" stop-color="#eec98a"/>
    </linearGradient>
    <linearGradient id="left" x1="0" y1="0" x2="1" y2="1">
      <stop offset="0" stop-color="#e0af57"/>
      <stop offset="1" stop-color="#b9843a"/>
    </linearGradient>
    <linearGradient id="right" x1="0" y1="0" x2="1" y2="1">
      <stop offset="0" stop-color="#9c6a29"/>
      <stop offset="1" stop-color="#6f4718"/>
    </linearGradient>
  </defs>

  <rect x="8" y="8" width="496" height="496" rx="112" fill="url(#bg)"/>
  <rect x="8" y="8" width="496" height="496" rx="112" fill="url(#glow)"/>
  <rect x="8.5" y="8.5" width="495" height="495" rx="111.5" fill="none" stroke="#d9a94b" stroke-opacity="0.28" stroke-width="1.5"/>

  <g stroke="#000000" stroke-opacity="0.22" stroke-width="2" stroke-linejoin="round">
    <polygon points="256,130 386,200 256,270 126,200" fill="url(#top)"/>
    <polygon points="126,200 256,270 256,420 126,350" fill="url(#left)"/>
    <polygon points="256,270 386,200 386,350 256,420" fill="url(#right)"/>
  </g>

  <polygon points="256,130 386,200 256,270 126,200" fill="none" stroke="#fff8e6" stroke-opacity="0.35" stroke-width="2"/>
</svg>
